HIERARCHY
ROOT Hips
{
    OFFSET 0.000000 0.000000 0.000000
    CHANNELS 6 Xposition Yposition Zposition Zrotation Xrotation Yrotation
    JOINT Spine
    {
        OFFSET -0.000000 7.583482 0.000000
        CHANNELS 3 Zrotation Xrotation Yrotation
        JOINT Spine1
        {
            OFFSET -0.000000 19.647881 0.000000
            CHANNELS 3 Zrotation Xrotation Yrotation
            JOINT Neck
            {
                OFFSET -0.000000 19.567190 1.778835
                CHANNELS 3 Zrotation Xrotation Yrotation
                JOINT Head
                {
                    OFFSET -0.000000 12.947408 -1.849630
                    CHANNELS 3 Zrotation Xrotation Yrotation
                    End Site
                    {
                        OFFSET -0.000000 23.120371 0.000000
                    }
                }
            }
            JOINT LeftShoulder
            {
                OFFSET 3.632882 16.008181 -0.342244
                CHANNELS 3 Zrotation Xrotation Yrotation
                JOINT LeftArm
                {
                    OFFSET 15.804684 0.000000 0.000000
                    CHANNELS 3 Zrotation Xrotation Yrotation
                    JOINT LeftForeArm
                    {
                        OFFSET 25.677923 0.000000 0.000000
                        CHANNELS 3 Zrotation Xrotation Yrotation
                        JOINT LeftHand
                        {
                            OFFSET 26.158810 0.000000 0.000000
                            CHANNELS 3 Zrotation Xrotation Yrotation
                            End Site
                            {
                                OFFSET 13.872223 0.000000 0.000000
                            }
                        }
                    }
                }
            }
            JOINT RightShoulder
            {
                OFFSET -3.700243 16.008181 -0.342244
                CHANNELS 3 Zrotation Xrotation Yrotation
                JOINT RightArm
                {
                    OFFSET -15.804684 0.000000 0.000000
                    CHANNELS 3 Zrotation Xrotation Yrotation
                    JOINT RightForeArm
                    {
                        OFFSET -25.677923 0.000000 0.000000
                        CHANNELS 3 Zrotation Xrotation Yrotation
                        JOINT RightHand
                        {
                            OFFSET -26.158810 0.000000 0.000000
                            CHANNELS 3 Zrotation Xrotation Yrotation
                            End Site
                            {
                                OFFSET -13.872223 0.000000 0.000000
                            }
                        }
                    }
                }
            }
        }
    }
    JOINT LeftUpLeg
    {
        OFFSET 9.248149 0.000000 0.000000
        CHANNELS 3 Zrotation Xrotation Yrotation
        JOINT LeftLeg
        {
            OFFSET -0.000000 -43.254459 0.000000
            CHANNELS 3 Zrotation Xrotation Yrotation
            JOINT LeftFoot
            {
                OFFSET -0.000000 -33.301838 0.000000
                CHANNELS 3 Zrotation Xrotation Yrotation
                JOINT LeftToeBase
                {
                    OFFSET -0.000000 -6.011296 13.872223
                    CHANNELS 3 Zrotation Xrotation Yrotation
                    End Site
                    {
                        OFFSET -0.000000 0.000000 3.699259
                    }
                }
            }
        }
    }
    JOINT RightUpLeg
    {
        OFFSET -9.248149 0.000000 0.000000
        CHANNELS 3 Zrotation Xrotation Yrotation
        JOINT RightLeg
        {
            OFFSET -0.000000 -43.254459 0.000000
            CHANNELS 3 Zrotation Xrotation Yrotation
            JOINT RightFoot
            {
                OFFSET -0.000000 -33.301838 0.000000
                CHANNELS 3 Zrotation Xrotation Yrotation
                JOINT RightToeBase
                {
                    OFFSET -0.000000 -6.011296 13.872223
                    CHANNELS 3 Zrotation Xrotation Yrotation
                    End Site
                    {
                        OFFSET -0.000000 0.000000 3.699259
                    }
                }
            }
        }
    }
}
MOTION
Frames:    10
Frame Time:    0.010000
-22.559574    83.837151    -48.986607    2.961719    -3.550011    -172.799835    13.846728    -5.241446    -2.874928    -10.572993    5.205649    -3.029768    -13.217081    14.949587    1.912382    11.459516    -13.999207    5.153101    1.023379    19.643505    -2.139787    -2.430116    58.705566    -68.441795    10.566310    -25.011803    -23.613579    -3.512234    -23.158075    6.014040    -1.432702    23.883299    2.304625    17.845287    50.196449    71.988174    -6.258971    -24.113478    -0.439527    -5.265511    -23.883961    -5.980925    18.201746    -10.718946    0.398694    -10.416616    13.384850    7.542743    2.004158    -8.590158    3.324783    0.000000    0.000000    0.000000    -6.913112    -9.287842    -7.107381    6.664743    15.627497    6.823101    4.123588    -4.859815    -25.730553    0.000000    0.000000    0.000000    
-22.597473    83.829880    -48.859142    2.929153    -3.596703    -172.684158    13.876963    -5.003505    -2.934997    -10.538080    5.041891    -3.078966    -12.844735    14.902518    1.934882    10.893153    -14.093608    5.037006    1.025270    19.725201    -2.244242    -1.758573    58.822529    -69.164764    10.138719    -24.657122    -23.077860    -3.507092    -22.924948    5.950501    -1.431135    23.819698    2.273857    17.822264    50.548965    72.149384    -7.082783    -24.769920    -0.015878    -5.498357    -24.502251    -6.147083    18.250250    -11.245638    0.010200    -10.844164    14.140151    7.396291    2.138115    -8.763213    3.529301    0.000000    0.000000    0.000000    -7.164216    -9.661736    -7.740650    6.769240    16.368769    7.957235    4.321036    -5.010311    -26.421246    0.000000    0.000000    0.000000    
-22.642843    83.807663    -48.704712    2.875538    -3.668538    -172.568710    13.856932    -4.744643    -3.000795    -10.448211    4.834141    -3.135361    -12.363367    14.912765    1.942117    10.197008    -14.254648    4.867224    1.037397    19.816647    -2.369181    -1.052886    58.922611    -69.979668    9.689687    -24.423458    -22.528938    -3.357835    -22.810793    5.946955    -1.414871    23.682350    2.307483    18.245468    50.502392    71.976875    -7.052598    -24.885473    0.403384    -6.643281    -24.519224    -6.510769    18.188734    -12.045351    -0.032731    -11.055423    15.445080    7.237166    2.365583    -9.094493    3.595063    0.000000    0.000000    0.000000    -7.476831    -10.277348    -8.373919    6.880782    17.457468    8.430768    4.409274    -5.047948    -26.557997    0.000000    0.000000    0.000000    
-22.699070    83.782570    -48.538269    2.835620    -3.740451    -172.580170    13.868724    -4.449797    -3.004644    -10.357184    4.595835    -3.129317    -11.835462    15.074041    1.959651    9.527758    -14.638684    4.714055    1.050672    19.949524    -2.476610    -0.198792    59.008900    -70.971344    9.304145    -24.237331    -21.982822    -3.024958    -22.719395    5.906749    -1.391107    23.519056    2.372042    18.304586    50.682415    72.083908    -7.083333    -25.032677    0.578450    -8.030430    -24.599354    -6.285024    18.115259    -13.010649    0.656353    -11.049189    17.355721    6.686280    2.553630    -9.502560    3.630793    0.000000    0.000000    0.000000    -7.722631    -10.817632    -9.072418    6.818469    18.216944    8.934783    4.425215    -4.778363    -26.485519    0.000000    0.000000    0.000000    
-22.756609    83.739349    -48.375340    2.821922    -3.796146    -172.541336    13.855622    -4.171984    -3.031404    -10.184967    4.364820    -3.149338    -11.342493    15.148360    1.932390    9.004791    -14.886861    4.550816    1.070533    20.173254    -2.559507    0.729810    59.015423    -72.079971    8.961963    -24.262707    -21.444941    -2.465462    -22.824915    6.132029    -1.375900    23.249283    2.566098    18.744671    50.901634    71.794014    -7.149675    -25.677242    0.700833    -9.095790    -25.200167    -6.085399    18.123590    -14.152045    0.864577    -11.281474    19.654076    6.606581    2.995034    -10.085818    3.460839    0.000000    0.000000    0.000000    -7.978010    -11.620715    -9.484254    6.865032    19.645828    9.590245    4.496749    -4.822758    -26.969263    0.000000    0.000000    0.000000    
-22.797520    83.652245    -48.209908    2.901282    -3.810250    -172.445679    13.835817    -3.869156    -3.093110    -9.861197    4.121501    -3.206964    -10.890450    15.434439    1.926681    8.626850    -15.427020    4.447764    1.136756    20.522125    -2.631438    1.396128    59.010689    -73.026634    8.782394    -24.875673    -21.002762    -2.064290    -23.483740    5.838333    -1.408642    22.925112    2.823561    19.584446    51.296593    71.185051    -7.610818    -26.443073    0.608047    -10.099600    -25.960501    -5.624593    18.281374    -15.456604    1.246479    -11.534417    22.341915    6.224168    3.620778    -10.697509    3.250857    0.000000    0.000000    0.000000    -8.156429    -12.419599    -9.798236    7.000138    21.202679    10.229859    4.489991    -5.066677    -27.587191    0.000000    0.000000    0.000000    
-22.855640    83.528389    -48.093754    2.932536    -3.704023    -172.428192    13.764050    -3.565334    -3.137314    -9.524251    4.019135    -3.232773    -10.100129    15.812770    1.927007    7.795025    -16.156363    4.225340    1.257303    20.902025    -2.682047    1.520706    59.156704    -73.467033    8.968629    -25.558641    -20.595911    -1.433380    -24.135880    5.185065    -1.321625    22.727186    2.954507    20.707409    51.279358    70.505653    -8.040782    -27.027630    -0.105857    -10.341157    -26.674797    -4.450392    18.379711    -16.665073    1.834261    -11.610675    25.245024    5.405347    4.506773    -10.936844    3.576630    0.000000    0.000000    0.000000    -8.291887    -12.969624    -10.302391    6.932878    22.536669    10.659307    4.543333    -5.344919    -27.803478    0.000000    0.000000    0.000000    
-22.949251    83.373505    -48.030853    2.910671    -3.425805    -172.404266    13.698134    -3.209467    -3.207016    -9.268800    4.005913    -3.267700    -9.165319    16.370275    1.955243    6.879934    -17.153721    4.003488    1.376077    21.155926    -2.783288    0.295200    59.158447    -72.839607    8.948282    -26.101114    -19.715137    -0.282558    -24.704199    4.686372    -1.105458    22.380297    3.114290    23.068716    51.066048    68.823540    -8.414734    -27.135176    -1.154755    -10.302299    -26.973396    -2.956768    18.411715    -17.678608    2.414879    -11.411774    28.584766    3.849802    5.866932    -11.367917    4.046307    0.000000    0.000000    0.000000    -8.474761    -13.404141    -10.862667    6.781359    23.974268    10.047746    4.682254    -5.375259    -27.107582    0.000000    0.000000    0.000000    
-23.069910    83.163521    -47.987343    2.944957    -3.082748    -172.304886    13.703834    -2.895080    -3.363526    -8.951331    3.981448    -3.399648    -8.424747    16.905645    1.918237    6.093444    -17.997538    3.739314    1.175634    21.301458    -2.628858    -2.749876    58.666214    -70.436508    8.170970    -26.444635    -18.862543    0.614887    -25.201080    4.098726    -0.961460    22.178268    3.237936    26.045437    50.464878    66.979500    -9.071485    -26.819029    -3.009211    -9.051332    -26.961481    -0.998622    18.533401    -18.681351    2.696359    -11.374733    32.304962    2.362484    6.350186    -12.027740    4.362215    0.000000    0.000000    0.000000    -8.569685    -13.518730    -11.451943    6.559760    24.886932    9.750710    4.659741    -5.506950    -26.665943    0.000000    0.000000    0.000000    
-23.203129    82.933578    -48.110668    2.780572    -2.482311    -172.910416    13.556829    -2.604458    -3.256701    -8.784542    4.377885    -3.229841    -8.039528    17.493774    1.916034    5.950516    -19.016058    3.702969    0.833595    21.314707    -2.016657    -6.173157    57.661568    -67.480576    7.129548    -26.155310    -17.857555    1.117606    -25.114336    3.400080    -0.694488    21.807308    3.399146    30.127342    49.551949    64.244171    -10.037735    -26.074167    -5.177629    -7.519125    -26.510853    0.488099    18.704760    -18.820004    3.602993    -11.250039    35.629181    0.833387    6.494145    -12.680100    5.263984    0.000000    0.000000    0.000000    -8.799094    -13.453403    -11.015265    6.776792    25.826824    8.886377    4.312703    -5.557345    -26.005344    0.000000    0.000000    0.000000    
